# Blender v2.67 (sub 0) OBJ File: ''
# www.blender.org
mtllib character2.mtl
o LegLeft1
v -2.030613 3.845084 2.005841
v 1.969387 3.845084 2.005841
v 1.969387 7.845084 2.005841
v -2.030613 7.845084 2.005841
v 1.969387 7.845085 -1.994159
v -2.030613 7.845085 -1.994159
v 1.969387 3.845085 -1.994159
v -2.030613 3.845085 -1.994159
v -0.030613 -5.154915 1.005839
v 1.969387 -5.154915 1.005839
v 1.969387 -2.154916 1.005840
v -0.030613 -2.154916 1.005840
v -0.030613 -6.654915 1.005839
v 1.969387 -6.654915 1.005839
v 1.969387 -2.154915 -0.994160
v -0.030613 -2.154915 -0.994160
v 1.969387 -5.154915 -0.994161
v -0.030613 -5.154915 -0.994161
v 1.969387 -6.654915 -0.994161
v -0.030613 -6.654915 -0.994161
v 1.969387 -8.154916 -0.994161
v -0.030613 -8.154916 -0.994161
v 1.969387 -8.154916 1.005839
v 1.969387 -7.154916 2.005839
v 1.969387 -8.154916 2.005839
v -0.030613 -8.154916 1.005839
v -0.030613 -8.154916 2.005839
v -0.030613 -7.154916 2.005839
v -4.030613 0.845084 1.005840
v -2.030613 0.845084 1.005840
v -2.030613 3.845084 1.005841
v -3.030613 3.845084 1.005841
v -4.030613 -1.154916 1.005840
v -3.363943 -1.154916 1.005840
v -2.697283 -1.154916 1.005840
v -2.030613 -1.154916 1.005840
v -4.030613 -2.154916 1.005840
v -3.363943 -2.154916 1.005840
v -3.697283 -3.154916 1.005840
v -3.030613 -3.154916 1.005840
v -2.697283 -2.154916 1.005840
v -2.030613 -2.154916 1.005840
v -2.030613 3.845085 -0.994159
v -3.030613 3.845085 -0.994159
v -2.030613 0.845085 -0.994160
v -4.030613 0.845085 -0.994160
v -4.030613 -1.154915 -0.994160
v -2.030613 -1.154915 -0.994160
v -3.363943 -1.154915 -0.994160
v -3.363943 -2.154915 -0.994160
v -4.030613 -2.154915 -0.994160
v -3.030613 -3.154915 -0.994160
v -3.697283 -3.154915 -0.994160
v -2.030613 -1.154915 0.005840
v -2.030613 -2.154916 0.005840
v -2.697283 -2.154916 0.005840
v -2.697283 -1.154915 0.005840
v -2.697283 -1.154915 -0.994160
v 1.969387 0.845084 1.005840
v 3.969387 0.845084 1.005840
v 2.969387 3.845084 1.005841
v 1.969387 3.845084 1.005841
v 1.969387 -1.154916 1.005840
v 2.636057 -1.154916 1.005840
v 3.302717 -1.154916 1.005840
v 3.969387 -1.154916 1.005840
v 1.969387 -2.154916 1.005840
v 2.636057 -2.154916 1.005840
v 3.302717 -2.154916 1.005840
v 3.969387 -2.154916 1.005840
v 2.969387 -3.154916 1.005840
v 3.636057 -3.154916 1.005840
v 2.969387 3.845085 -0.994159
v 1.969387 3.845085 -0.994159
v 3.969387 0.845085 -0.994160
v 1.969387 0.845085 -0.994160
v 1.969387 -1.154915 -0.994160
v 3.969387 -1.154915 -0.994160
v 3.302717 -1.154915 -0.994160
v 3.969387 -2.154915 -0.994160
v 3.302717 -2.154915 -0.994160
v 3.636057 -3.154915 -0.994160
v 2.969387 -3.154915 -0.994160
v 1.969387 -1.154915 0.005840
v 1.969387 -2.154916 0.005840
v 2.636057 -1.154915 -0.994160
v 2.636057 -1.154915 0.005840
v 2.636057 -2.154916 0.005840
v -2.030613 -5.154915 1.005839
v -0.030613 -5.154915 1.005839
v -0.030613 -2.154916 1.005840
v -2.030613 -2.154916 1.005840
v -2.030613 -6.654915 1.005839
v -0.030613 -6.654915 1.005839
v -0.030613 -2.154915 -0.994160
v -2.030613 -2.154915 -0.994160
v -0.030613 -5.154915 -0.994161
v -2.030613 -5.154915 -0.994161
v -0.030613 -6.654915 -0.994161
v -2.030613 -6.654915 -0.994161
v -0.030613 -8.154916 -0.994161
v -2.030613 -8.154916 -0.994161
v -0.030613 -8.154916 1.005839
v -0.030613 -7.154916 2.005839
v -0.030613 -8.154916 2.005839
v -2.030613 -8.154916 1.005839
v -2.030613 -8.154916 2.005839
v -2.030613 -7.154916 2.005839
v -2.032783 -2.154916 1.005840
v 1.967227 -2.154916 1.005840
v 1.967227 3.845084 1.005841
v -2.032783 3.845084 1.005841
v 1.971557 3.845085 -0.994159
v -2.028453 3.845085 -0.994159
v 1.971557 -2.154915 -0.994160
v -2.028453 -2.154915 -0.994160
vt 0.214239 0.709217
vt 0.355532 0.709218
vt 0.355533 0.850513
vt 0.214239 0.850512
vt 0.355532 0.991807
vt 0.214239 0.991807
vt 0.638122 0.850512
vt 0.496827 0.850512
vt 0.496827 0.709217
vt 0.638122 0.709218
vt 0.214239 0.567923
vt 0.355533 0.567923
vt 0.072944 0.709217
vt 0.072944 0.850513
vt 0.844309 0.189898
vt 0.913108 0.189898
vt 0.913108 0.293097
vt 0.844309 0.293097
vt 0.844309 0.138298
vt 0.913108 0.138298
vt 0.913108 0.361897
vt 0.844309 0.361897
vt 0.775509 0.293097
vt 0.706709 0.293097
vt 0.706709 0.189898
vt 0.775509 0.189898
vt 0.706709 0.138298
vt 0.775509 0.138298
vt 0.706709 0.086698
vt 0.775509 0.086698
vt 0.981908 0.189898
vt 0.981908 0.293097
vt 0.981908 0.138298
vt 0.913108 0.086698
vt 0.878708 0.121098
vt 0.981908 0.086698
vt 0.878708 0.086698
vt 0.844309 0.086698
vt 0.775509 0.017898
vt 0.844309 0.017898
vt 0.878708 0.017898
vt 0.913108 0.017898
vt 0.947508 0.017898
vt 0.947508 0.086698
vt 0.110062 0.446260
vt 0.182541 0.446260
vt 0.182541 0.554980
vt 0.146301 0.554980
vt 0.110062 0.373781
vt 0.134221 0.373781
vt 0.158381 0.373781
vt 0.182541 0.373781
vt 0.110062 0.337541
vt 0.134221 0.337541
vt 0.122141 0.301301
vt 0.146302 0.301301
vt 0.158381 0.337541
vt 0.182541 0.337541
vt 0.182541 0.627459
vt 0.146301 0.627459
vt 0.291260 0.554980
vt 0.255020 0.554980
vt 0.255020 0.446260
vt 0.327500 0.446260
vt 0.327500 0.373781
vt 0.255020 0.373781
vt 0.303340 0.373781
vt 0.303340 0.337541
vt 0.327500 0.337541
vt 0.291260 0.301302
vt 0.315420 0.301301
vt 0.218780 0.373781
vt 0.218780 0.337541
vt 0.037582 0.446261
vt 0.110061 0.554980
vt 0.037582 0.554980
vt 0.037582 0.373781
vt 0.037582 0.337541
vt 0.037582 0.301301
vt 0.037582 0.277142
vt 0.110061 0.277141
vt 0.110061 0.301301
vt 0.037581 0.204662
vt 0.110061 0.204662
vt 0.110061 0.240902
vt 0.037581 0.240902
vt 0.182541 0.313381
vt 0.218780 0.313381
vt 0.073822 0.180502
vt 0.037582 0.180502
vt 0.037582 0.156342
vt 0.073821 0.156342
vt 0.110061 0.180502
vt 0.182541 0.277141
vt 0.218780 0.277142
vt 0.242940 0.277141
vt 0.242941 0.313381
vt 0.807349 0.794632
vt 0.879828 0.794633
vt 0.843588 0.903352
vt 0.807349 0.903352
vt 0.807349 0.722153
vt 0.831509 0.722154
vt 0.855669 0.722154
vt 0.879828 0.722154
vt 0.807349 0.685914
vt 0.831509 0.685913
vt 0.855668 0.685913
vt 0.879828 0.685913
vt 0.843588 0.649673
vt 0.867748 0.649674
vt 0.843589 0.975832
vt 0.807349 0.975831
vt 0.734869 0.903352
vt 0.698629 0.903352
vt 0.662390 0.794632
vt 0.734869 0.794632
vt 0.734869 0.722153
vt 0.662390 0.722153
vt 0.686549 0.722153
vt 0.662390 0.685913
vt 0.686549 0.685914
vt 0.674469 0.649674
vt 0.698630 0.649674
vt 0.952308 0.794632
vt 0.952308 0.903352
vt 0.879829 0.903352
vt 0.771110 0.722153
vt 0.771110 0.685913
vt 0.879828 0.625514
vt 0.952308 0.625514
vt 0.952308 0.649673
vt 0.879828 0.649673
vt 0.952307 0.722153
vt 0.952308 0.685913
vt 0.952307 0.504715
vt 0.952307 0.528874
vt 0.916066 0.528874
vt 0.916066 0.504714
vt 0.879827 0.528873
vt 0.952308 0.553034
vt 0.879827 0.553034
vt 0.771109 0.661754
vt 0.807349 0.661753
vt 0.952307 0.589274
vt 0.879827 0.589274
vt 0.746949 0.625514
vt 0.771108 0.625514
vt 0.746949 0.661753
vt 0.807349 0.625514
vt 0.356614 0.182628
vt 0.425413 0.182628
vt 0.425414 0.285828
vt 0.356614 0.285828
vt 0.356614 0.131029
vt 0.425413 0.131029
vt 0.425414 0.354627
vt 0.356614 0.354627
vt 0.563013 0.285828
vt 0.494213 0.285828
vt 0.494213 0.182629
vt 0.563013 0.182628
vt 0.494213 0.131029
vt 0.563013 0.131029
vt 0.494213 0.079429
vt 0.563013 0.079429
vt 0.425413 0.079429
vt 0.391014 0.113829
vt 0.391014 0.079429
vt 0.287814 0.182628
vt 0.287814 0.285828
vt 0.287814 0.131029
vt 0.287814 0.079429
vt 0.356614 0.079429
vt 0.494213 0.010629
vt 0.425413 0.010629
vt 0.391013 0.010629
vt 0.356614 0.010629
vt 0.322214 0.079429
vt 0.322214 0.010629
vt 0.474081 0.377354
vt 0.615923 0.377354
vt 0.615924 0.590116
vt 0.474082 0.590116
vt 0.616077 0.661036
vt 0.474235 0.661036
vt 0.828686 0.590116
vt 0.686844 0.590116
vt 0.686844 0.377354
vt 0.828686 0.377354
vt 0.474234 0.306433
vt 0.616076 0.306433
vt 0.403161 0.377354
vt 0.403161 0.590116
vn 0.000000 -0.000000 1.000000
vn 0.000000 1.000000 0.000000
vn 0.000000 0.000000 -1.000000
vn -0.000000 -1.000000 -0.000000
vn 1.000000 0.000000 0.000000
vn -1.000000 0.000000 -0.000000
vn -0.000000 0.894427 0.447214
vn -0.948683 0.316228 0.000000
vn 0.948684 0.316225 0.000000
vn -0.948684 -0.316225 -0.000000
vn 0.948683 0.316228 0.000000
vn 0.948684 -0.316225 -0.000000
vn -0.948684 0.316225 0.000000
vn 0.999998 -0.000000 0.002165
vn -0.999998 0.000000 -0.002165
usemtl lambert1
s off
f 1/1/1 2/2/1 3/3/1
f 1/1/1 3/3/1 4/4/1
f 4/4/2 3/3/2 5/5/2
f 4/4/2 5/5/2 6/6/2
f 6/7/3 5/8/3 7/9/3
f 6/7/3 7/9/3 8/10/3
f 8/11/4 7/12/4 2/2/4
f 2/2/4 1/1/4 8/11/4
f 2/2/5 7/9/5 5/8/5
f 2/2/5 5/8/5 3/3/5
f 8/13/6 1/1/6 4/4/6
f 8/13/6 4/4/6 6/14/6
f 9/15/1 10/16/1 11/17/1
f 9/15/1 11/17/1 12/18/1
f 10/16/1 9/15/1 13/19/1
f 13/19/1 14/20/1 10/16/1
f 12/18/2 11/17/2 15/21/2
f 12/18/2 15/21/2 16/22/2
f 16/23/3 15/24/3 17/25/3
f 16/23/3 17/25/3 18/26/3
f 18/26/3 17/25/3 19/27/3
f 18/26/3 19/27/3 20/28/3
f 20/28/3 19/27/3 21/29/3
f 20/28/3 21/29/3 22/30/3
f 10/16/5 17/31/5 15/32/5
f 10/16/5 15/32/5 11/17/5
f 14/20/5 17/31/5 10/16/5
f 14/20/5 19/33/5 17/31/5
f 23/34/5 14/20/5 24/35/5
f 23/34/5 19/33/5 14/20/5
f 23/34/5 21/36/5 19/33/5
f 23/34/5 24/35/5 25/37/5
f 18/26/6 9/15/6 12/18/6
f 18/26/6 12/18/6 16/23/6
f 20/28/6 9/15/6 18/26/6
f 13/19/6 9/15/6 20/28/6
f 22/30/6 13/19/6 20/28/6
f 13/19/6 26/38/6 27/37/6
f 13/19/6 27/37/6 28/35/6
f 22/30/6 26/38/6 13/19/6
f 22/30/4 21/39/4 23/40/4
f 22/30/4 23/40/4 26/38/4
f 26/38/4 23/40/4 25/41/4
f 26/38/4 25/41/4 27/37/4
f 27/37/1 25/41/1 24/42/1
f 27/37/1 24/42/1 28/34/1
f 14/43/7 13/44/7 28/34/7
f 14/43/7 28/34/7 24/42/7
f 29/45/1 30/46/1 31/47/1
f 29/45/1 31/47/1 32/48/1
f 29/45/1 33/49/1 34/50/1
f 29/45/1 34/50/1 35/51/1
f 29/45/1 35/51/1 36/52/1
f 30/46/1 29/45/1 36/52/1
f 34/50/1 33/49/1 37/53/1
f 34/50/1 37/53/1 38/54/1
f 38/54/1 37/53/1 39/55/1
f 38/54/1 39/55/1 40/56/1
f 36/52/1 35/51/1 41/57/1
f 36/52/1 41/57/1 42/58/1
f 32/48/2 31/47/2 43/59/2
f 32/48/2 43/59/2 44/60/2
f 44/61/3 43/62/3 45/63/3
f 44/61/3 45/63/3 46/64/3
f 47/65/3 46/64/3 45/63/3
f 47/65/3 45/63/3 48/66/3
f 47/65/3 49/67/3 50/68/3
f 47/65/3 50/68/3 51/69/3
f 51/69/3 50/68/3 52/70/3
f 51/69/3 52/70/3 53/71/3
f 30/46/5 45/63/5 43/62/5
f 30/46/5 43/62/5 31/47/5
f 30/46/5 36/52/5 54/72/5
f 30/46/5 54/72/5 48/66/5
f 48/66/5 45/63/5 30/46/5
f 54/72/5 36/52/5 42/58/5
f 54/72/5 42/58/5 55/73/5
f 46/74/8 29/45/8 32/75/8
f 46/74/8 32/75/8 44/76/8
f 33/49/6 29/45/6 47/77/6
f 47/77/6 29/45/6 46/74/6
f 33/49/6 47/77/6 51/78/6
f 33/49/6 51/78/6 37/53/6
f 53/79/4 52/80/4 40/81/4
f 53/79/4 40/81/4 39/82/4
f 49/83/5 34/84/5 38/85/5
f 49/83/5 38/85/5 50/86/5
f 50/86/9 38/85/9 40/81/9
f 50/86/9 40/81/9 52/80/9
f 37/53/10 51/78/10 53/79/10
f 37/53/10 53/79/10 39/82/10
f 42/58/4 41/87/4 56/88/4
f 42/58/4 56/88/4 55/73/4
f 57/89/4 58/90/4 48/91/4
f 57/89/4 48/91/4 54/92/4
f 34/84/4 58/90/4 57/89/4
f 57/89/4 35/93/4 34/84/4
f 34/84/4 49/83/4 58/90/4
f 35/94/6 57/95/6 56/88/6
f 35/94/6 56/88/6 41/87/6
f 57/95/3 54/96/3 55/97/3
f 57/95/3 55/97/3 56/88/3
f 59/98/1 60/99/1 61/100/1
f 59/98/1 61/100/1 62/101/1
f 59/98/1 63/102/1 64/103/1
f 59/98/1 64/103/1 65/104/1
f 59/98/1 65/104/1 66/105/1
f 60/99/1 59/98/1 66/105/1
f 64/103/1 63/102/1 67/106/1
f 64/103/1 67/106/1 68/107/1
f 66/105/1 65/104/1 69/108/1
f 66/105/1 69/108/1 70/109/1
f 70/109/1 69/108/1 71/110/1
f 70/109/1 71/110/1 72/111/1
f 62/101/2 61/100/2 73/112/2
f 62/101/2 73/112/2 74/113/2
f 74/114/3 73/115/3 75/116/3
f 74/114/3 75/116/3 76/117/3
f 77/118/3 76/117/3 75/116/3
f 77/118/3 75/116/3 78/119/3
f 79/120/3 78/119/3 80/121/3
f 79/120/3 80/121/3 81/122/3
f 81/122/3 80/121/3 82/123/3
f 81/122/3 82/123/3 83/124/3
f 60/99/11 75/125/11 73/126/11
f 60/99/11 73/126/11 61/127/11
f 76/117/6 59/98/6 62/101/6
f 76/117/6 62/101/6 74/114/6
f 76/117/6 77/118/6 84/128/6
f 76/117/6 84/128/6 63/102/6
f 63/102/6 59/98/6 76/117/6
f 63/102/6 84/128/6 85/129/6
f 63/102/6 85/129/6 67/106/6
f 71/130/4 83/131/4 82/132/4
f 71/130/4 82/132/4 72/133/4
f 66/105/5 78/134/5 75/125/5
f 66/105/5 75/125/5 60/99/5
f 78/134/5 66/105/5 70/109/5
f 78/134/5 70/109/5 80/135/5
f 80/135/12 70/109/12 72/133/12
f 80/135/12 72/133/12 82/132/12
f 77/136/4 86/137/4 87/138/4
f 77/136/4 87/138/4 84/139/4
f 64/140/4 86/137/4 79/141/4
f 79/141/4 65/142/4 64/140/4
f 85/129/4 88/143/4 68/144/4
f 85/129/4 68/144/4 67/106/4
f 65/142/6 79/141/6 81/145/6
f 65/142/6 81/145/6 69/146/6
f 69/146/13 81/145/13 83/131/13
f 69/146/13 83/131/13 71/130/13
f 84/147/3 87/148/3 88/143/3
f 84/147/3 88/143/3 85/149/3
f 87/148/5 64/150/5 68/144/5
f 87/148/5 68/144/5 88/143/5
f 89/151/1 90/152/1 91/153/1
f 89/151/1 91/153/1 92/154/1
f 90/152/1 89/151/1 93/155/1
f 93/155/1 94/156/1 90/152/1
f 92/154/2 91/153/2 95/157/2
f 92/154/2 95/157/2 96/158/2
f 96/159/3 95/160/3 97/161/3
f 96/159/3 97/161/3 98/162/3
f 98/162/3 97/161/3 99/163/3
f 98/162/3 99/163/3 100/164/3
f 100/164/3 99/163/3 101/165/3
f 100/164/3 101/165/3 102/166/3
f 90/152/5 97/161/5 95/160/5
f 90/152/5 95/160/5 91/153/5
f 94/156/5 97/161/5 90/152/5
f 94/156/5 99/163/5 97/161/5
f 103/167/5 99/163/5 94/156/5
f 103/167/5 94/156/5 104/168/5
f 103/167/5 101/165/5 99/163/5
f 103/167/5 104/168/5 105/169/5
f 98/170/6 89/151/6 92/154/6
f 98/170/6 92/154/6 96/171/6
f 100/172/6 89/151/6 98/170/6
f 93/155/6 89/151/6 100/172/6
f 102/173/6 93/155/6 100/172/6
f 102/173/6 106/174/6 93/155/6
f 93/155/6 106/174/6 107/169/6
f 93/155/6 107/169/6 108/168/6
f 102/175/4 101/165/4 103/167/4
f 102/175/4 103/167/4 106/176/4
f 106/176/4 103/167/4 105/169/4
f 106/176/4 105/169/4 107/177/4
f 107/177/1 105/169/1 104/174/1
f 107/177/1 104/174/1 108/178/1
f 94/179/7 93/180/7 108/178/7
f 94/179/7 108/178/7 104/174/7
f 109/181/1 110/182/1 111/183/1
f 109/181/1 111/183/1 112/184/1
f 112/184/2 111/183/2 113/185/2
f 112/184/2 113/185/2 114/186/2
f 114/187/3 113/188/3 115/189/3
f 114/187/3 115/189/3 116/190/3
f 116/191/4 115/192/4 110/182/4
f 110/182/4 109/181/4 116/191/4
f 110/182/14 115/189/14 113/188/14
f 110/182/14 113/188/14 111/183/14
f 116/193/15 109/181/15 112/184/15
f 116/193/15 112/184/15 114/194/15
